<?xml version="1.0" encoding="iso-8859-1"?>
<!-- Uploaded to: SVG Repo, www.svgrepo.com, Generator: SVG Repo Mixer Tools -->
<svg version="1.1" id="Layer_1" xmlns="http://www.w3.org/2000/svg" xmlns:xlink="http://www.w3.org/1999/xlink" 
	 viewBox="0 0 512.001 512.001" xml:space="preserve">
<path style="fill:#A65A3A;" d="M48.025,503.762L503.761,48.025c9.623-9.624,10.816-24.485,3.58-35.407L252.023,252.023
	L12.617,507.342C23.54,514.578,38.402,513.385,48.025,503.762z"/>
<g>
	<path style="fill:#D3754F;" d="M503.761,8.24c-10.986-10.986-28.798-10.986-39.784,0L8.241,463.977
		c-10.986,10.986-10.987,28.798-0.001,39.785c1.363,1.363,2.831,2.556,4.377,3.579L507.342,12.617
		C506.317,11.071,505.124,9.602,503.761,8.24z"/>
	<polygon style="fill:#D3754F;" points="439.009,144.604 267.936,267.936 144.604,439.009 168.475,462.88 462.88,168.475 	"/>
</g>
<rect x="35.885" y="176.543" transform="matrix(-0.7071 0.7071 -0.7071 -0.7071 589.2118 244.059)" style="fill:#F7A676;" width="416.349" height="135.032"/>
<g>
	<circle style="fill:#D3754F;" cx="133.065" cy="331.192" r="8.44"/>
	<circle style="fill:#D3754F;" cx="145.004" cy="366.998" r="8.44"/>
</g>
</svg>