<?xml version="1.0" encoding="UTF-8" standalone="no"?>
<svg
   xmlns:dc="http://purl.org/dc/elements/1.1/"
   xmlns:cc="http://creativecommons.org/ns#"
   xmlns:rdf="http://www.w3.org/1999/02/22-rdf-syntax-ns#"
   xmlns:svg="http://www.w3.org/2000/svg"
   xmlns="http://www.w3.org/2000/svg"
   xmlns:sodipodi="http://sodipodi.sourceforge.net/DTD/sodipodi-0.dtd"
   xmlns:inkscape="http://www.inkscape.org/namespaces/inkscape"
   inkscape:version="1.0 (4035a4fb49, 2020-05-01)"
   sodipodi:docname="logo.svg"
   xml:space="preserve"
   viewBox="0 0 117.7 59.200001"
   version="1.1"
   id="Layer_1"
   width="117.7"
   height="59.200001"><metadata
     id="metadata59"><rdf:RDF><cc:Work
         rdf:about=""><dc:format>image/svg+xml</dc:format><dc:type
           rdf:resource="http://purl.org/dc/dcmitype/StillImage" /><dc:title /></cc:Work></rdf:RDF></metadata><defs
     id="defs57" /><sodipodi:namedview
     inkscape:current-layer="Layer_1"
     inkscape:window-maximized="1"
     inkscape:window-y="-9"
     inkscape:window-x="-9"
     inkscape:cy="35.2"
     inkscape:cx="56.66722"
     inkscape:zoom="6.875"
     showgrid="false"
     id="namedview55"
     inkscape:window-height="1051"
     inkscape:window-width="1841"
     inkscape:pageshadow="2"
     inkscape:pageopacity="0"
     guidetolerance="10"
     gridtolerance="10"
     objecttolerance="10"
     borderopacity="1"
     bordercolor="#666666"
     pagecolor="#ffffff"
     inkscape:document-rotation="0" /><style
     id="style2"
     type="text/css">
	.st0{fill:#581166;}
	.st1{fill:#E83A3A;}
	.st2{fill:#FF5855;}
	.st3{opacity:0.5;}
	.st4{fill:#FFDA8E;}
	.st5{fill:#FFFFFF;}
	.st6{fill:#EABA65;}
	.st7{fill:#E6E6E6;}
	.st8{fill:#460A54;}
	.st9{fill:none;}
	.st10{fill:none;stroke:#581166;stroke-width:2;stroke-linecap:round;stroke-linejoin:round;stroke-miterlimit:10;}
	.st11{fill:#F2F2F2;}
</style><g
     id="g52"
     transform="translate(-6,-28.8)"><g
       id="g10"><g
         id="g8"><g
           id="g6"><path
             style="fill:#ff5855;fill-opacity:1"
             id="path4"
             d="m 66.8,48.6 h -4 c -1.3,0 -2.3,-1 -2.3,-2.3 V 33 c 0,-1.3 1,-2.3 2.3,-2.3 h 4 c 1.3,0 2.3,1 2.3,2.3 v 13.3 c 0.1,1.2 -1,2.3 -2.3,2.3 z"
             class="st4" /></g></g></g><g
       id="g18"><g
         id="g16"><g
           id="g14"><path
             style="fill:#ac9d93"
             id="path12"
             d="m 64.8,50.5 c -3.4,0 -6.2,-2.8 -6.2,-6.2 V 35 c 0,-3.4 2.8,-6.2 6.2,-6.2 3.4,0 6.2,2.8 6.2,6.2 v 9.2 c 0,3.5 -2.8,6.3 -6.2,6.3 z m 0,-18 c -1.4,0 -2.5,1.1 -2.5,2.5 v 9.2 c 0,1.4 1.1,2.5 2.5,2.5 1.4,0 2.5,-1.1 2.5,-2.5 V 35 c 0,-1.3 -1.1,-2.5 -2.5,-2.5 z"
             class="st0" /></g></g></g><g
       id="g26"><g
         id="g24"><g
           id="g22"><path
             id="path20"
             d="m 62.9,38.4 c -26.4,0 -47.8,21.4 -47.8,47.8 h 95.5 C 110.6,59.8 89.3,38.4 62.9,38.4 Z"
             class="st2" /></g></g></g><g
       id="g34"><g
         id="g32"><g
           id="g30"><path
             style="fill:#ac9d93"
             id="path28"
             d="M 110.6,88 H 15.1 c -1,0 -1.9,-0.8 -1.9,-1.9 0,-27.4 22.3,-49.6 49.6,-49.6 27.3,0 49.6,22.3 49.6,49.6 0.1,1.1 -0.7,1.9 -1.8,1.9 z M 17,84.3 h 91.7 c -1,-24.4 -21.2,-44 -45.9,-44 -24.7,0 -44.8,19.6 -45.8,44 z"
             class="st0" /></g></g></g><g
       id="g42"><g
         id="g40"><g
           id="g38"><path
             style="fill:#ac9d93"
             id="path36"
             d="M 122.1,88 H 7.6 C 6.7,88 6,87.2 6,86.2 c 0,-1 0.7,-1.9 1.6,-1.9 h 114.5 c 0.9,0 1.6,0.8 1.6,1.9 0,1 -0.8,1.8 -1.6,1.8 z"
             class="st0" /></g></g></g><g
       id="g50"><g
         id="g48"><g
           id="g46"><path
             id="path44"
             d="M 97.8,66.5 C 97,66.5 96.3,66 96,65.2 92.9,56.1 86.6,54.7 86.4,54.6 c -1,-0.2 -1.7,-1.2 -1.4,-2.2 0.2,-1 1.2,-1.6 2.2,-1.5 0.3,0.1 8.6,1.9 12.4,13.1 0.3,1 -0.2,2 -1.2,2.4 -0.2,0.1 -0.4,0.1 -0.6,0.1 z"
             class="st11" /></g></g></g></g><text
     id="text63"
     y="41.745457"
     x="23.672728"
     style="font-style:italic;font-size:24px;line-height:1.25;font-family:'Showcard Gothic';-inkscape-font-specification:'Showcard Gothic Italic';letter-spacing:0px;word-spacing:0px"
     xml:space="preserve"><tspan
       y="41.745457"
       x="23.672728"
       id="tspan61"
       sodipodi:role="line" /></text><text
     id="text67"
     y="42.327274"
     x="35.890907"
     style="font-style:italic;font-size:13.3333px;line-height:1.25;font-family:'Showcard Gothic';-inkscape-font-specification:'Showcard Gothic Italic';letter-spacing:0px;word-spacing:0px"
     xml:space="preserve"><tspan
       y="42.327274"
       x="35.890907"
       id="tspan65"
       sodipodi:role="line" /></text><text
     id="text71"
     y="51.781818"
     x="17.272726"
     style="font-style:italic;font-size:13.3333px;line-height:1.25;font-family:'Showcard Gothic';-inkscape-font-specification:'Showcard Gothic Italic';letter-spacing:0px;word-spacing:0px;fill:#ffffff"
     xml:space="preserve"><tspan
       y="51.781818"
       x="17.272726"
       id="tspan69"
       sodipodi:role="line" /></text><text
     id="text75"
     y="32.581818"
     x="34.872726"
     style="font-style:italic;font-size:13.3333px;line-height:1.25;font-family:'Showcard Gothic';-inkscape-font-specification:'Showcard Gothic Italic';letter-spacing:0px;word-spacing:0px;fill:#ffffff"
     xml:space="preserve"><tspan
       id="tspan77"
       y="32.581818"
       x="34.872726"
       sodipodi:role="line" /></text><text
     id="text87"
     y="33.454544"
     x="32.836365"
     style="font-style:italic;font-size:13.3333px;line-height:1.25;font-family:'Showcard Gothic';-inkscape-font-specification:'Showcard Gothic Italic';letter-spacing:0px;word-spacing:0px;fill:#ffffff"
     xml:space="preserve"><tspan
       id="tspan89"
       y="33.454544"
       x="32.836365"
       sodipodi:role="line" /></text><text
     id="text918"
     y="30.981819"
     x="24.690908"
     style="font-style:italic;font-size:13.3333px;line-height:1.25;font-family:'Showcard Gothic';-inkscape-font-specification:'Showcard Gothic Italic';letter-spacing:0px;word-spacing:0px;fill:#ffffff;fill-opacity:1"
     xml:space="preserve"><tspan
       y="30.981819"
       x="24.690908"
       id="tspan916"
       sodipodi:role="line">     Cock</tspan><tspan
       id="tspan920"
       y="47.648441"
       x="24.690908"
       sodipodi:role="line">  Master</tspan></text></svg>
