<?xml version="1.0" encoding="UTF-8" standalone="no"?>
<svg
   xmlns:dc="http://purl.org/dc/elements/1.1/"
   xmlns:cc="http://creativecommons.org/ns#"
   xmlns:rdf="http://www.w3.org/1999/02/22-rdf-syntax-ns#"
   xmlns:svg="http://www.w3.org/2000/svg"
   xmlns="http://www.w3.org/2000/svg"
   xmlns:sodipodi="http://sodipodi.sourceforge.net/DTD/sodipodi-0.dtd"
   xmlns:inkscape="http://www.inkscape.org/namespaces/inkscape"
   version="1.1"
   id="chefs_hat"
   x="0px"
   y="0px"
   width="173"
   height="230"
   viewBox="0 0 173 230"
   enable-background="new 0 0 173 209"
   xml:space="preserve"
   sodipodi:docname="logo.svg"
   inkscape:version="1.0.2 (e86c870879, 2021-01-15, custom)"><metadata
   id="metadata20"><rdf:RDF><cc:Work
       rdf:about=""><dc:format>image/svg+xml</dc:format><dc:type
         rdf:resource="http://purl.org/dc/dcmitype/StillImage" /><dc:title /></cc:Work></rdf:RDF></metadata><defs
   id="defs18"><rect
     x="13.0625"
     y="205.4375"
     width="152.47501"
     height="39.900002"
     id="rect137" /><rect
     x="9.7375002"
     y="207.10001"
     width="157.9375"
     height="38.950001"
     id="rect131" /><rect
     x="16.387501"
     y="206.625"
     width="145.825"
     height="37.762501"
     id="rect125" /><rect
     x="15.2"
     y="205.91251"
     width="150.10001"
     height="40.612499"
     id="rect119" /><rect
     x="11.875"
     y="204.96249"
     width="156.27499"
     height="43.224998"
     id="rect113" /><rect
     x="20.6625"
     y="203.3"
     width="128.96249"
     height="41.799999"
     id="rect107" /></defs><sodipodi:namedview
   pagecolor="#888888"
   bordercolor="#666666"
   borderopacity="1"
   objecttolerance="10"
   gridtolerance="10"
   guidetolerance="10"
   inkscape:pageopacity="1"
   inkscape:pageshadow="2"
   inkscape:window-width="1841"
   inkscape:window-height="1051"
   id="namedview16"
   showgrid="false"
   inkscape:zoom="4.2105263"
   inkscape:cx="87.45"
   inkscape:cy="88.21254"
   inkscape:window-x="-9"
   inkscape:window-y="-9"
   inkscape:window-maximized="1"
   inkscape:current-layer="chefs_hat"
   inkscape:document-rotation="0" />
<g
   id="parts_group">
	<path
   fill="#ffffff"
   d="m 36.91,46.364 c -13.637,1.817 -23.638,13.181 -23.638,26.817 0,10.456 5.911,20 15.457,24.545 1.363,0.455 2.273,1.82 2.726,3.638 3.183,22.728 4.545,45.455 5,67.729 h 100.002 c 0,-22.274 1.815,-45.002 4.998,-67.729 0,-1.365 1.363,-2.728 2.726,-3.638 9.548,-4.545 15.456,-14.089 15.456,-24.545 0,-13.636 -10,-25 -23.637,-26.817 -1.363,0 -2.726,-1.363 -3.636,-2.728 C 123.273,25.455 105.545,14.091 86,14.091 c -19.544,0 -37.271,11.364 -45.455,29.545 -0.907,1.365 -2.273,2.273 -3.635,2.728"
   id="path2" />
	<path
   fill="#9fbdd3"
   d="m 137.09,46.364 c -1.362,0 -2.726,-0.91 -3.635,-2.728 C 125.727,25.455 107.545,14.091 88,14.091 c 11.816,5.911 21.817,17.274 27.272,29.545 0.453,1.365 1.815,2.273 3.636,2.728 13.637,1.817 23.637,13.181 23.637,26.817 0,10.456 -5.908,20 -15.456,24.545 -1.362,0.455 -2.272,1.82 -2.272,3.183 -0.453,2.272 -9.544,-5 -9.544,-5 V 73.182 c 0,-6.363 -2.272,-12.271 -5.908,-16.816 0.905,2.725 1.363,5.908 1.363,9.091 0,16.816 -13.637,30.908 -30.911,30.908 -2.728,0 -5,-0.455 -7.726,-0.91 -3.638,-1.363 -7.273,-2.726 -9.546,-3.181 4.545,-5 7.273,-11.363 7.273,-18.182 0,-6.363 -2.273,-12.273 -5.911,-16.819 0.91,2.728 1.365,5.911 1.365,9.091 0,16.819 -13.636,30.91 -30.91,30.91 -3.181,0 -5.908,-0.455 -9.091,-1.365 4.545,3.638 10.456,5.91 16.819,5.91 6.818,0 -6.546,7.27 -9.272,6.818 0.453,3.178 0.8515,7.9635 1.3065,10.6945 2.272,0.453 5.2375,0.6675 7.9655,0.6675 8.181,0 16.364,-2.726 22.728,-8.181 6.363,5.002 14.544,8.181 22.727,8.181 8.184,0 16.364,-2.726 22.725,-8.181 0.91,0.91 1.82,1.362 2.73,1.82 5.455,3.635 8.634,9.543 8.181,15.908 -1.362,13.637 -1.819,26.816 -1.819,40 h 18.182 c 0,-16.819 0.91,-33.639 2.729,-50.91 0,-1.363 0.453,-2.726 0.453,-4.089 0.457,-4.093 0.91,-8.638 1.362,-12.729 0,-1.365 1.367,-2.728 2.273,-3.183 9.548,-4.545 15.456,-14.091 15.456,-24.545 0.911,-14.545 -9.09,-25.908 -22.727,-27.726"
   id="path4"
   sodipodi:nodetypes="cccccscccscssccscsscsccscsccccccccccc"
   style="fill:#ff8080" />
	
	<path
   fill="#014463"
   d="M 142.9535,226.85 H 28.0965 c -2.728,0 4.076814,-8.50963 4.2425,-13.095 0.502908,-13.91798 -9.975,-40.573 -9.975,-40.573 -0.606716,-2.65763 1.818,-4.545 4.545,-4.545 h 118.182 c 2.726,0 5.24806,1.91096 4.546,4.545 l -10.6875,40.098 c -0.70181,2.63308 6.729,13.57 4.004,13.57 m -102.236,-5.0535 91.04,1.1875 8.7875,-45.257 H 31.455 Z"
   id="path8"
   sodipodi:nodetypes="csassssscccccc" />
	
	<path
   fill="#014463"
   d="M 138.726,37.726 C 128.725,17.727 108.27,5 86,5 63.726,5 43.271,17.727 33.272,37.726 16.453,40.909 4.182,55.908 4.182,73.182 c 0,13.182 6.818,25 18.182,31.363 3.18,23.183 4.545,46.362 4.545,68.637 0,2.726 1.817,4.546 4.545,4.546 h 109.09 c 2.727,0 4.546,-1.82 4.546,-4.546 0,-22.274 1.362,-45.454 4.546,-68.637 11.363,-6.363 18.182,-18.182 18.182,-31.363 0,-17.274 -12.273,-32.273 -29.092,-35.456 m 5.455,59.546 c -3.636,1.818 -8.181,3.183 -12.726,3.183 -5.456,0 -10.911,-1.82 -15.457,-5 -0.453,0 -0.453,-0.455 -0.91,-0.455 4.546,-5.908 7.275,-13.636 7.275,-21.817 0,-2.728 -1.819,-4.545 -4.545,-4.545 -2.73,0 -4.546,1.818 -4.546,4.545 0,14.999 -12.273,27.273 -27.272,27.273 -2.728,0 -4.545,1.818 -4.545,4.545 0,2.726 1.818,4.545 4.545,4.545 8.634,0 16.819,-3.182 23.18,-8.183 0.457,0.91 0.91,1.365 1.363,1.818 5.912,4.092 13.184,6.365 20.912,6.365 3.182,0 5.908,-0.457 8.633,-0.909 -2.272,20.001 -4.088,40.456 -4.088,60.001 h -22.728 v -4.093 c 0,-12.274 1.363,-24.091 4.546,-35.907 0.453,-2.272 -0.91,-5.002 -3.183,-5.455 -2.272,-0.457 -4.999,0.91 -5.456,3.183 -3.183,12.27 -4.545,25 -4.545,38.18 v 4.093 H 90.998 V 127.73 c 0,-2.73 -1.815,-4.546 -4.545,-4.546 -2.726,0 -4.546,1.815 -4.546,4.546 v 40.909 H 68.271 v -4.093 c 0,-12.727 -1.363,-25.453 -4.545,-38.18 -0.453,-2.272 -3.181,-4.093 -5.453,-3.183 -2.273,0.453 -4.091,3.183 -3.183,5.455 2.728,11.816 4.545,23.633 4.545,35.907 v 4.093 H 36.908 c 0,-19.545 -1.363,-40 -4.09,-60.001 2.728,0.452 5.455,0.909 8.636,0.909 9.546,0 18.637,-3.635 25.455,-10.455 1.818,-1.818 1.818,-4.546 0,-6.363 -1.818,-1.818 -4.545,-1.818 -6.363,0 -5.91,5 -12.729,7.728 -20,7.728 -4.545,0 -9.091,-1.365 -12.729,-3.183 -9.091,-4.545 -14.544,-14.091 -14.544,-24.09 0,-10.911 6.363,-20.001 15.909,-24.547 -1.365,5 -2.272,10.001 -2.272,15.456 0,2.726 1.817,4.545 4.545,4.545 2.726,0 4.545,-1.82 4.545,-4.545 0,-8.183 1.818,-15.456 5.453,-22.274 C 49.636,25 66.908,14.091 86,14.091 c 19.545,0 37.273,11.364 45.455,29.545 0.452,1.363 1.814,2.273 3.635,2.726 13.637,1.82 23.638,13.184 23.638,26.82 0,9.999 -5.457,19.089 -14.547,24.09"
   id="path12" />
</g>
<text
   xml:space="preserve"
   style="font-style:normal;font-weight:normal;font-size:40px;line-height:1.25;font-family:sans-serif;fill:#000000;fill-opacity:1;stroke:none"
   x="23.275"
   y="246.7625"
   id="text75"><tspan
     sodipodi:role="line"
     id="tspan73"
     x="23.275"
     y="246.7625" /></text><text
   xml:space="preserve"
   style="font-style:normal;font-variant:normal;font-weight:normal;font-stretch:normal;font-size:26.6667px;line-height:1.25;font-family:'Berlin Sans FB Demi';-inkscape-font-specification:'Berlin Sans FB Demi';fill:#ffffff"
   x="14.725"
   y="239.39999"
   id="text79"><tspan
     sodipodi:role="line"
     id="tspan77"
     x="14.725"
     y="239.39999" /></text><text
   xml:space="preserve"
   style="font-style:normal;font-variant:normal;font-weight:normal;font-stretch:normal;font-size:26.6667px;line-height:1.25;font-family:'Bauhaus 93';-inkscape-font-specification:'Bauhaus 93, ';fill:#ffffff"
   x="4.5124998"
   y="238.45"
   id="text83"><tspan
     sodipodi:role="line"
     id="tspan81"
     x="4.5124998"
     y="238.45" /></text><text
   xml:space="preserve"
   style="font-size:26.6667px;line-height:1.25;font-family:sans-serif"
   x="25.174999"
   y="234.41251"
   id="text87"><tspan
     sodipodi:role="line"
     x="25.174999"
     y="234.41251"
     id="tspan89"
     style="font-size:26.6667px;fill:#ffffff" /></text><text
   xml:space="preserve"
   style="font-size:37.3333px;line-height:1.25;font-family:sans-serif"
   x="34.674999"
   y="229.89999"
   id="text95"><tspan
     sodipodi:role="line"
     id="tspan93"
     x="34.674999"
     y="229.89999" /></text><text
   xml:space="preserve"
   style="font-size:37.3333px;line-height:1.25;font-family:sans-serif"
   x="33.962502"
   y="229.425"
   id="text99"><tspan
     sodipodi:role="line"
     id="tspan97"
     x="33.962502"
     y="229.425" /></text><text
   xml:space="preserve"
   style="font-size:26.6667px;line-height:1.25;font-family:sans-serif"
   x="26.8375"
   y="216.60001"
   id="text103"><tspan
     sodipodi:role="line"
     id="tspan101"
     x="26.8375"
     y="216.60001" /></text><text
   xml:space="preserve"
   id="text105"
   style="font-size:37.3333px;line-height:1.25;font-family:sans-serif;white-space:pre;shape-inside:url(#rect107);" /><text
   xml:space="preserve"
   id="text111"
   style="font-size:37.3333px;line-height:1.25;font-family:sans-serif;white-space:pre;shape-inside:url(#rect113);" /><text
   xml:space="preserve"
   id="text117"
   style="font-style:normal;font-variant:normal;font-weight:normal;font-stretch:normal;font-size:26.6667px;line-height:1.25;font-family:'Berlin Sans FB Demi';-inkscape-font-specification:'Berlin Sans FB Demi';white-space:pre;shape-inside:url(#rect119);" /><text
   xml:space="preserve"
   id="text123"
   style="font-size:37.3333px;line-height:1.25;font-family:'Bauhaus 93';-inkscape-font-specification:'Bauhaus 93, ';white-space:pre;shape-inside:url(#rect125);fill:#ffffff;" /><text
   xml:space="preserve"
   id="text129"
   style="font-size:37.3333px;line-height:1.25;font-family:'Bauhaus 93';-inkscape-font-specification:'Bauhaus 93, ';white-space:pre;shape-inside:url(#rect131);" /><text
   xml:space="preserve"
   id="text135"
   style="font-size:26.6667px;line-height:1.25;font-family:'Bauhaus 93';-inkscape-font-specification:'Bauhaus 93, ';white-space:pre;shape-inside:url(#rect137);fill:#ffffff;stroke:#014463;stroke-opacity:1;fill-opacity:1;"
   transform="translate(27.65,-32.3)"><tspan
     x="13.0625"
     y="229.95004"><tspan
       style="font-size:26.6667px;fill:#ffffff;fill-opacity:1;stroke:#014463;stroke-opacity:1">Kitchen</tspan></tspan></text><text
   xml:space="preserve"
   style="font-size:26.6667px;line-height:1.25;font-family:'Bauhaus 93';-inkscape-font-specification:'Bauhaus 93, ';fill:#ffffff;stroke:#014463;fill-opacity:1;"
   x="46.174999"
   y="219.21251"
   id="text143"><tspan
     sodipodi:role="line"
     id="tspan141"
     x="46.174999"
     y="219.21251">Master</tspan></text></svg>
