<?xml version="1.0" encoding="utf-8"?>
<!-- Generator: Adobe Illustrator 16.0.0, SVG Export Plug-In . SVG Version: 6.00 Build 0)  -->
<!DOCTYPE svg PUBLIC "-//W3C//DTD SVG 1.1//EN" "http://www.w3.org/Graphics/SVG/1.1/DTD/svg11.dtd">
<svg version="1.1" id="chefs_hat" xmlns="http://www.w3.org/2000/svg" xmlns:xlink="http://www.w3.org/1999/xlink" x="0px" y="0px"
	 width="173px" height="209px" viewBox="0 0 173 209" enable-background="new 0 0 173 209" xml:space="preserve">
<g id="parts_group">
	<path fill="#FFFFFF" d="M36.91,46.364c-13.637,1.817-23.638,13.181-23.638,26.817c0,10.456,5.911,20,15.457,24.545
		c1.363,0.455,2.273,1.82,2.726,3.638c3.183,22.728,4.545,45.455,5,67.729h100.002c0-22.274,1.815-45.002,4.998-67.729
		c0-1.365,1.363-2.728,2.726-3.638c9.548-4.545,15.456-14.089,15.456-24.545c0-13.636-10-25-23.637-26.817
		c-1.363,0-2.726-1.363-3.636-2.728C123.273,25.455,105.545,14.091,86,14.091c-19.544,0-37.271,11.364-45.455,29.545
		C39.638,45.001,38.272,45.909,36.91,46.364"/>
	<path fill="#9FBDD3" d="M135.09,46.364c-1.362,0-2.726-0.91-3.635-2.728C123.727,25.455,105.545,14.091,86,14.091
		c11.816,5.911,21.817,17.274,27.272,29.545c0.453,1.365,1.815,2.273,3.636,2.728c13.637,1.817,23.637,13.181,23.637,26.817
		c0,10.456-5.908,20-15.456,24.545c-1.362,0.455-2.272,1.82-2.272,3.183c-0.453,2.272-9.544-5-9.544-5V73.182
		c0-6.363-2.272-12.271-5.908-16.816c0.905,2.725,1.363,5.908,1.363,9.091c0,16.816-13.637,30.908-30.911,30.908
		c-2.728,0-5-0.455-7.726-0.91c-3.638-1.363-7.273-2.726-9.546-3.181c4.545-5,7.273-11.363,7.273-18.182
		c0-6.363-2.273-12.273-5.911-16.819c0.91,2.728,1.365,5.911,1.365,9.091c0,16.819-13.636,30.91-30.91,30.91
		c-3.181,0-5.908-0.455-9.091-1.365c4.545,3.638,10.456,5.91,16.819,5.91c6.818,0-5.91,8.636-8.636,8.184
		c0.453,3.178,0.453,6.36,0.908,9.091c2.272,0.453,5,0.905,7.728,0.905c8.181,0,16.364-2.726,22.728-8.181
		c6.363,5.002,14.544,8.181,22.727,8.181c8.184,0,16.364-2.726,22.725-8.181c0.91,0.91,1.82,1.362,2.73,1.82
		c5.455,3.635,8.634,9.543,8.181,15.908c-1.362,13.637-1.819,26.816-1.819,40h18.182c0-16.819,0.91-33.639,2.729-50.91
		c0-1.363,0.453-2.726,0.453-4.089c0.457-4.093,0.91-8.638,1.362-12.729c0-1.365,1.367-2.728,2.273-3.183
		c9.548-4.545,15.456-14.091,15.456-24.545C158.728,59.545,148.727,48.182,135.09,46.364"/>
	<rect x="31.455" y="177.728" fill="#FFFFFF" width="109.09" height="18.182"/>
	<path fill="#014463" d="M145.091,205H26.909c-2.728,0-4.545-1.82-4.545-4.545v-27.273c0-2.726,1.818-4.545,4.545-4.545h118.182
		c2.726,0,4.546,1.819,4.546,4.545v27.273C149.637,203.18,147.816,205,145.091,205 M31.455,195.909h109.09v-18.182H31.455V195.909z"
		/>
	<path fill="#9FBDD3" d="M117.818,182.272L117.818,182.272c0,4.999-4.093,9.091-9.091,9.091H31.455v4.546h109.09v-4.546v-13.636
		h-18.182C119.639,177.728,117.818,179.547,117.818,182.272"/>
	<path fill="#014463" d="M138.726,37.726C128.725,17.727,108.27,5,86,5C63.726,5,43.271,17.727,33.272,37.726
		C16.453,40.909,4.182,55.908,4.182,73.182c0,13.182,6.818,25,18.182,31.363c3.18,23.183,4.545,46.362,4.545,68.637
		c0,2.726,1.817,4.546,4.545,4.546h109.09c2.727,0,4.546-1.82,4.546-4.546c0-22.274,1.362-45.454,4.546-68.637
		c11.363-6.363,18.182-18.182,18.182-31.363C167.818,55.908,155.545,40.909,138.726,37.726 M144.181,97.272
		c-3.636,1.818-8.181,3.183-12.726,3.183c-5.456,0-10.911-1.82-15.457-5c-0.453,0-0.453-0.455-0.91-0.455
		c4.546-5.908,7.275-13.636,7.275-21.817c0-2.728-1.819-4.545-4.545-4.545c-2.73,0-4.546,1.818-4.546,4.545
		c0,14.999-12.273,27.273-27.272,27.273c-2.728,0-4.545,1.818-4.545,4.545c0,2.726,1.818,4.545,4.545,4.545
		c8.634,0,16.819-3.182,23.18-8.183c0.457,0.91,0.91,1.365,1.363,1.818c5.912,4.092,13.184,6.365,20.912,6.365
		c3.182,0,5.908-0.457,8.633-0.909c-2.272,20.001-4.088,40.456-4.088,60.001h-22.728v-4.093c0-12.274,1.363-24.091,4.546-35.907
		c0.453-2.272-0.91-5.002-3.183-5.455c-2.272-0.457-4.999,0.91-5.456,3.183c-3.183,12.27-4.545,25-4.545,38.18v4.093H90.998v-40.909
		c0-2.73-1.815-4.546-4.545-4.546c-2.726,0-4.546,1.815-4.546,4.546v40.909H68.271v-4.093c0-12.727-1.363-25.453-4.545-38.18
		c-0.453-2.272-3.181-4.093-5.453-3.183c-2.273,0.453-4.091,3.183-3.183,5.455c2.728,11.816,4.545,23.633,4.545,35.907v4.093H36.908
		c0-19.545-1.363-40-4.09-60.001c2.728,0.452,5.455,0.909,8.636,0.909c9.546,0,18.637-3.635,25.455-10.455
		c1.818-1.818,1.818-4.546,0-6.363c-1.818-1.818-4.545-1.818-6.363,0c-5.91,5-12.729,7.728-20,7.728
		c-4.545,0-9.091-1.365-12.729-3.183c-9.091-4.545-14.544-14.091-14.544-24.09c0-10.911,6.363-20.001,15.909-24.547
		c-1.365,5-2.272,10.001-2.272,15.456c0,2.726,1.817,4.545,4.545,4.545c2.726,0,4.545-1.82,4.545-4.545
		c0-8.183,1.818-15.456,5.453-22.274C49.636,25,66.908,14.091,86,14.091c19.545,0,37.273,11.364,45.455,29.545
		c0.452,1.363,1.814,2.273,3.635,2.726c13.637,1.82,23.638,13.184,23.638,26.82C158.728,83.181,153.271,92.271,144.181,97.272"/>
</g>
</svg>
