<svg id="Layer_1" height="512" viewBox="0 0 512 512" width="512" xmlns="http://www.w3.org/2000/svg" data-name="Layer 1"><path d="m290.49 114.488a34.275 34.275 0 0 1 -4.65 17.3 258.3 258.3 0 0 0 -59.69 0 34.495 34.495 0 1 1 64.34-17.3z" fill="#f94730"/><path d="m241.51 114.488a34.5 34.5 0 0 1 24.49-33.013 34.505 34.505 0 0 0 -39.85 50.313c6.315-.737 12.726-1.219 19.2-1.485a34.357 34.357 0 0 1 -3.84-15.815z" fill="#d63c30"/><path d="m484.013 282.884h-456.026l-.02 61.077 456.536-1z" fill="#bcdcfc"/><path d="m57.988 282.69h-30.001l-.02 61.271 30-.066z" fill="#5f91d4"/><path d="m484.012 342.691h-456.044v11.27a48.958 48.958 0 0 0 48.96 48.951h358.144c27.04 0 48.96-21.92 49.431-49.951v-10.27z" fill="#5f91d4"/><path d="m57.967 353.961v-11.27h-30v11.27a48.958 48.958 0 0 0 48.96 48.951h30a48.958 48.958 0 0 1 -48.96-48.951z" fill="#5885b7"/><path d="m421.742 403.312v19.06a9.628 9.628 0 0 1 -9.63 9.63h-312.224a9.628 9.628 0 0 1 -9.63-9.63v-19.46h331.484z" fill="#bcdcfc"/><path d="m120.258 422.372v-19.46h-30v19.46a9.628 9.628 0 0 0 9.63 9.63h30a9.629 9.629 0 0 1 -9.63-9.63z" fill="#73aae5"/><path d="m484.023 265.58a12.235 12.235 0 0 1 .48 24.46 3.854 3.854 0 0 1 -.48.02c-15.68 0-22.8 4.17-31.821 9.451-10.25 6-21.87 12.8-44.19 12.8s-33.941-6.8-44.191-12.8c-9.01-5.281-16.14-9.451-31.82-9.451s-22.8 4.17-31.82 9.451c-10.251 6-21.871 12.8-44.191 12.8s-33.94-6.8-44.191-12.8c-9.01-5.281-16.13-9.451-31.82-9.451s-22.8 4.17-31.81 9.451c-10.25 6-21.871 12.8-44.191 12.8s-33.94-6.8-44.19-12.8c-9.011-5.281-16.131-9.451-31.811-9.451a12.24 12.24 0 1 1 0-24.48 88.9 88.9 0 0 1 15.27 1.23c12.941 2.22 21.3 7.12 28.911 11.57 9.02 5.28 16.14 9.45 31.82 9.45s22.8-4.17 31.82-9.45c10.251-6 21.861-12.8 44.181-12.8s33.94 6.8 44.191 12.8c9.02 5.28 16.14 9.45 31.82 9.45s22.81-4.17 31.82-9.45c10.251-6 21.871-12.8 44.191-12.8s33.94 6.8 44.191 12.8c9.02 5.28 16.14 9.45 31.82 9.45s22.81-4.17 31.83-9.45c7.6-4.45 15.94-9.34 28.851-11.56a89.474 89.474 0 0 1 15.33-1.24z" fill="#f94730"/><path d="m285.84 131.788c86.621 10.121 157.46 63.651 182.793 134.682l.06.35c-12.911 2.22-21.251 7.11-28.851 11.56-9.02 5.28-16.14 9.45-31.83 9.45s-22.8-4.17-31.82-9.45c-10.251-6-21.871-12.8-44.191-12.8s-33.94 6.8-44.191 12.8c-9.01 5.28-16.14 9.45-31.82 9.45s-22.8-4.17-31.82-9.45c-10.251-6-21.871-12.8-44.191-12.8s-33.93 6.8-44.181 12.8c-9.02 5.28-16.14 9.45-31.82 9.45s-22.8-4.17-31.82-9.45c-7.61-4.45-15.97-9.35-28.911-11.57 25.231-71.191 96.152-124.881 182.9-135.022a258.3 258.3 0 0 1 59.69 0z" fill="#f39c4e"/><path d="m102.158 278.38c-7.61-4.45-15.97-9.35-28.91-11.57 25.231-71.191 96.151-124.881 182.9-135.022q7.349-.858 14.847-1.3-7.434-.43-15-.435a257.344 257.344 0 0 0 -29.85 1.73c-86.745 10.146-157.667 63.836-182.898 135.027 12.941 2.22 21.3 7.12 28.911 11.57 9.02 5.28 16.14 9.45 31.821 9.45a58.416 58.416 0 0 0 15-1.713c-6.49-1.699-11.304-4.507-16.821-7.737z" fill="#ea8a3b"/><path d="m39.053 267.023a90.694 90.694 0 0 0 -15.571-1.254 12.482 12.482 0 1 0 0 24.963 55.718 55.718 0 0 1 18.255 2.632c.584-8.064 2.212-22.947 4.415-24.758a72.478 72.478 0 0 0 -7.099-1.583z" fill="#d63c30"/><g fill="#284268"><path d="m255 247.432a6 6 0 0 0 6-6v-48.846a6 6 0 0 0 -12 0v48.846a6 6 0 0 0 6 6z"/><path d="m190.779 183.4a6 6 0 0 0 -8.447.8l-28.632 34.637a6 6 0 0 0 9.25 7.646l28.629-34.637a6 6 0 0 0 -.8-8.446z"/><path d="m349.047 226.483a6 6 0 0 0 9.25-7.646l-28.629-34.637a6 6 0 0 0 -9.25 7.646z"/><path d="m111.9 211.883a5.978 5.978 0 0 0 4.006-1.535 187.075 187.075 0 0 1 22.588-17.334 205.858 205.858 0 0 1 59.927-26.553 6 6 0 1 0 -3.078-11.6 217.81 217.81 0 0 0 -63.411 28.1 199.1 199.1 0 0 0 -24.041 18.45 6 6 0 0 0 4.009 10.465z"/><path d="m224.087 161.222a6 6 0 0 0 .821-.056c3.633-.5 7.335-.912 11.006-1.232a6 6 0 1 0 -1.043-11.955c-3.865.337-7.765.774-11.59 1.3a6 6 0 0 0 .806 11.945z"/><path d="m22 295.022v58.934a55.072 55.072 0 0 0 54.927 55.044h7.073v13.374a15.87 15.87 0 0 0 15.889 15.626h312.222a15.87 15.87 0 0 0 15.889-15.626v-13.374h7.073a55.072 55.072 0 0 0 54.927-55.044v-58.934a18.223 18.223 0 0 0 -5.982-35.44 100.255 100.255 0 0 0 -11.321.618c-14.746-38.208-43.078-72.378-80.21-96.593a244.128 244.128 0 0 0 -97.955-36.726 40.489 40.489 0 1 0 -77.064 0 244.056 244.056 0 0 0 -98.116 36.832c-37.059 24.21-65.321 58.334-80.046 96.488a100.409 100.409 0 0 0 -11.33-.619 18.223 18.223 0 0 0 -5.976 35.44zm394 127.352a3.864 3.864 0 0 1 -3.889 3.626h-312.222a3.864 3.864 0 0 1 -3.889-3.626v-13.374h320zm62-85.374h-343a6 6 0 0 0 0 12h343v4.956a43.058 43.058 0 0 1 -42.927 43.044h-358.146a43.058 43.058 0 0 1 -42.927-43.044v-4.956h61a6 6 0 0 0 0-12h-61v-40.69c10 .869 15.287 3.989 22.776 8.374 10.367 6.07 23.263 13.624 47.212 13.624s36.843-7.553 47.213-13.624c8.87-5.2 14.731-8.627 28.785-8.627s19.916 3.432 28.788 8.627c10.369 6.07 23.27 13.624 47.217 13.624s36.851-7.554 47.219-13.624c8.872-5.2 14.733-8.627 28.79-8.627s19.919 3.432 28.793 8.628c10.368 6.069 23.271 13.623 47.219 13.623s36.841-7.554 47.209-13.624c7.489-4.384 12.779-7.505 22.779-8.374zm-222-251a28.5 28.5 0 0 1 26.333 39.373q-13.023-1.3-26.333-1.309t-26.333 1.309a28.5 28.5 0 0 1 26.333-39.373zm-130.085 87.759c37.745-24.659 82.729-37.695 130.085-37.695 47.288 0 92.218 13 129.933 37.6 34.359 22.406 60.694 53.758 74.753 88.8-10.217 2.754-17.529 7.029-23.884 10.75-8.872 5.194-14.733 8.626-28.792 8.626s-19.918-3.432-28.79-8.626c-10.368-6.07-23.271-13.624-47.22-13.624s-36.853 7.554-47.22 13.625c-8.872 5.193-14.733 8.625-28.789 8.625s-19.917-3.432-28.789-8.626c-10.368-6.07-23.27-13.624-47.218-13.624s-36.847 7.553-47.217 13.624c-8.87 5.194-14.729 8.626-28.786 8.626s-19.917-3.432-28.789-8.626c-6.352-3.72-13.664-8-23.88-10.749 14.04-34.997 40.311-66.304 74.603-88.706zm-97.939 97.823c20.693 0 31.094 6.09 41.154 11.98 9.412 5.511 17.541 10.27 34.851 10.27s25.439-4.76 34.851-10.271c10.06-5.89 20.461-11.979 41.152-11.979s31.1 6.09 41.156 11.98c9.412 5.511 17.541 10.27 34.851 10.27s25.44-4.759 34.853-10.27c10.059-5.89 20.461-11.98 41.156-11.98s31.1 6.09 41.158 11.98c9.412 5.511 17.541 10.27 34.854 10.27s25.443-4.76 34.856-10.271c10.061-5.89 20.463-11.979 41.156-11.979a6.238 6.238 0 1 1 0 12.475c-17.311 0-25.441 4.76-34.853 10.271-10.061 5.89-20.463 11.98-41.159 11.98s-31.1-6.09-41.158-11.979c-9.413-5.512-17.542-10.272-34.854-10.272s-25.44 4.76-34.854 10.271c-10.059 5.89-20.461 11.98-41.155 11.98s-31.1-6.09-41.155-11.98c-9.412-5.511-17.542-10.271-34.852-10.271s-25.438 4.76-34.853 10.273c-10.058 5.889-20.459 11.978-41.15 11.978s-31.095-6.09-41.155-11.98c-9.412-5.511-17.542-10.271-34.85-10.271a6.238 6.238 0 1 1 0-12.475z"/></g></svg>