<?xml version="1.0" encoding="UTF-8" standalone="no"?>
<!-- Created with Inkscape (http://www.inkscape.org/) -->

<svg
   xmlns:dc="http://purl.org/dc/elements/1.1/"
   xmlns:cc="http://creativecommons.org/ns#"
   xmlns:rdf="http://www.w3.org/1999/02/22-rdf-syntax-ns#"
   xmlns:svg="http://www.w3.org/2000/svg"
   xmlns="http://www.w3.org/2000/svg"
   xmlns:sodipodi="http://sodipodi.sourceforge.net/DTD/sodipodi-0.dtd"
   xmlns:inkscape="http://www.inkscape.org/namespaces/inkscape"
   version="1.1"
   id="svg1535"
   xml:space="preserve"
   width="266.66666"
   height="266.66666"
   viewBox="0 0 266.66666 266.66666"
   sodipodi:docname="wavy-american-flag [Converted].svg"
   inkscape:version="0.92.4 (5da689c313, 2019-01-14)"><metadata
     id="metadata1541"><rdf:RDF><cc:Work
         rdf:about=""><dc:format>image/svg+xml</dc:format><dc:type
           rdf:resource="http://purl.org/dc/dcmitype/StillImage" /><dc:title></dc:title></cc:Work></rdf:RDF></metadata><defs
     id="defs1539"><clipPath
       clipPathUnits="userSpaceOnUse"
       id="clipPath1551"><path
         d="M 0,200 H 200 V 0 H 0 Z"
         id="path1549"
         inkscape:connector-curvature="0" /></clipPath></defs><sodipodi:namedview
     pagecolor="#ffffff"
     bordercolor="#666666"
     borderopacity="1"
     objecttolerance="10"
     gridtolerance="10"
     guidetolerance="10"
     inkscape:pageopacity="0"
     inkscape:pageshadow="2"
     inkscape:window-width="1920"
     inkscape:window-height="1018"
     id="namedview1537"
     showgrid="false"
     inkscape:zoom="2.3928823"
     inkscape:cx="198.30508"
     inkscape:cy="115.25423"
     inkscape:window-x="-8"
     inkscape:window-y="-8"
     inkscape:window-maximized="1"
     inkscape:current-layer="g1543" /><g
     id="g1543"
     inkscape:groupmode="layer"
     inkscape:label="wavy-american-flag [Converted]"
     transform="matrix(1.3333333,0,0,-1.3333333,0,266.66667)"><g
       id="g1545"><g
         id="g1547"
         clip-path="url(#clipPath1551)"><path
           d="m 189.273,140.209 c 2.697,-3.036 6.099,-5.714 7.488,-9.293 1.33,-3.436 0.08,-7.686 -2.194,-11.58 -2.401,-4.117 -5.345,-7.819 -6.298,-11.752 -0.853,-3.523 0.62,-7.329 3.127,-10.666 2.76,-3.672 6.208,-7.037 7.674,-11.059 1.325,-3.637 0.122,-7.782 -2.218,-11.257 -2.448,-3.639 -5.493,-6.842 -6.456,-10.527 -0.909,-3.508 0.63,-7.59 3.174,-11.495 -9.54,0.121 -18.716,0.252 -27.299,0.155 -7.843,-0.09 -14.882,-0.367 -21.044,-1.121 -5.399,-0.663 -10.104,-1.73 -14.048,-3.377 -3.665,-1.536 -6.935,-3.752 -10.218,-6.176 -3.61,-2.665 -7.746,-5.76 -13.126,-8.505 C 101.402,30.272 93.142,27.446 83.147,25.443 71.66,23.144 58.632,22.001 44.662,21.642 30.167,21.274 15.537,21.759 1.086,22.324 0.833,30.102 0.525,37.452 0.428,44.201 0.34,50.366 0.477,56.124 0.75,61.711 1.32,73.299 1.843,85.926 1.306,98.442 0.823,109.886 0.459,121.13 0.964,133.743 c 0.277,6.994 0.644,14.199 0.795,21.227 0.136,6.41 0.037,11.926 -0.241,16.55 13.89,1.131 27.994,2.342 42.101,2.627 13.722,0.28 26.729,-0.345 38.356,-2.456 10.285,-1.868 18.931,-4.88 25.625,-8.649 5.699,-3.21 9.972,-6.968 13.57,-10.348 6.225,-5.85 13.151,-10.734 22.502,-12.262 5.651,-0.922 12.191,-1.175 19.522,-1.133 8.105,0.048 16.859,0.461 26.079,0.91"
           style="fill:#ffffff;fill-opacity:1;fill-rule:nonzero;stroke:none"
           id="path1553"
           inkscape:connector-curvature="0" /><path
           d="m 194.43,134.713 c -1.603,1.948 -3.513,3.647 -5.157,5.496 -10.899,-0.531 -21.095,-1.016 -30.295,-0.896 -8.071,0.102 -15.063,0.679 -20.775,2.321 -4.989,1.436 -9.191,3.998 -12.806,7.154 -3.885,3.4 -7.886,7.743 -13.528,11.601 1.453,-2.359 2.869,-4.862 3.618,-7.682 5.617,-3.469 9.614,-7.439 13.464,-10.487 3.615,-2.862 7.86,-5.139 12.903,-6.4 5.861,-1.463 13.02,-1.943 21.324,-2.007 9.488,-0.073 20.008,0.394 31.252,0.9"
           style="fill:#ed1c24;fill-opacity:1;fill-rule:nonzero;stroke:none"
           id="path1555"
           inkscape:connector-curvature="0" /><path
           d="m 195.455,120.94 c 1.287,2.48 2.11,5.048 1.901,7.435 -11.609,-0.498 -22.47,-0.961 -32.269,-0.966 -8.577,-0.002 -15.952,0.343 -22.053,1.53 -9.802,1.913 -16.89,8.73 -27.377,13.938 -0.705,-3.772 -2.09,-7.562 -3.566,-11.361 10.635,-3.89 18.469,-9.092 28.483,-10.495 6.259,-0.875 13.725,-1.093 22.394,-1.035 9.876,0.068 20.805,0.497 32.487,0.954"
           style="fill:#ed1c24;fill-opacity:1;fill-rule:nonzero;stroke:none"
           id="path1557"
           inkscape:connector-curvature="0" /><path
           d="m 107.485,111.139 c 10.115,-1.916 18.174,-4.496 27.91,-5.135 6.12,-0.399 13.329,-0.464 21.673,-0.383 9.458,0.093 19.878,0.371 30.964,0.665 0.289,2.409 1.484,4.847 2.962,7.3 -11.415,-0.383 -22.115,-0.742 -31.807,-0.831 -8.537,-0.078 -15.908,0.055 -22.144,0.67 -9.986,0.988 -18.138,4.774 -28.637,7.596 -0.918,-3.38 -1.302,-6.725 -0.921,-9.882"
           style="fill:#ed1c24;fill-opacity:1;fill-rule:nonzero;stroke:none"
           id="path1559"
           inkscape:connector-curvature="0" /><path
           d="m 113.919,93.981 c 9.49,-0.286 17.171,-0.738 26.642,-0.757 6.126,-0.011 13.392,0.059 21.852,0.169 9.606,0.126 20.186,0.299 31.412,0.482 -1.655,2.023 -3.27,3.962 -4.391,6.021 -11.038,-0.229 -21.428,-0.447 -30.865,-0.549 -8.317,-0.09 -15.48,-0.089 -21.541,0.124 -9.504,0.335 -17.335,1.892 -27.124,3.009 1.281,-2.795 2.77,-5.574 4.015,-8.499"
           style="fill:#ed1c24;fill-opacity:1;fill-rule:nonzero;stroke:none"
           id="path1561"
           inkscape:connector-curvature="0" /><path
           d="m 199.338,79.597 c 0.648,2.309 0.404,4.843 -0.621,7.136 -9.858,-0.11 -19.286,-0.213 -28.051,-0.337 -7.961,-0.112 -15.047,-0.236 -21.243,-0.402 -5.354,-0.144 -9.952,-0.321 -13.914,-0.566 -3.51,-0.216 -6.779,-0.515 -10.076,-0.834 -3.653,-0.353 -8.019,-0.762 -13.485,-1.126 C 105.039,83.008 96.425,82.604 86.011,82.267 73.91,81.875 60.424,81.604 46,81.402 31.127,81.197 16.224,81.083 1.579,80.973 1.512,77.022 1.349,73.171 1.155,69.439 c 14.283,-0.065 28.837,-0.123 43.388,0.052 14.146,0.17 27.424,0.551 39.383,1.262 10.368,0.619 19.013,1.456 25.996,2.466 5.613,0.812 10.133,1.756 13.962,2.576 3.475,0.742 6.917,1.436 10.609,1.916 4.128,0.536 8.896,0.892 14.42,1.14 6.363,0.287 13.623,0.436 21.765,0.537 8.959,0.111 18.59,0.158 28.66,0.209"
           style="fill:#ed1c24;fill-opacity:1;fill-rule:nonzero;stroke:none"
           id="path1563"
           inkscape:connector-curvature="0" /><path
           d="m 191.23,66.301 c 1.077,2.225 2.727,4.298 4.333,6.481 -9.967,0.012 -19.505,0.028 -28.386,-0.063 -8.092,-0.082 -15.329,-0.249 -21.695,-0.63 -5.557,-0.337 -10.397,-0.844 -14.601,-1.626 -3.814,-0.709 -7.373,-1.734 -10.974,-2.845 -3.939,-1.213 -8.524,-2.609 -14.17,-3.809 C 98.84,62.341 90.359,61.131 80.278,60.271 68.732,59.284 55.944,58.8 42.349,58.643 28.368,58.481 14.374,58.669 0.622,58.872 0.479,55.403 0.395,51.855 0.398,48.173 c 13.546,-0.298 27.291,-0.562 40.978,-0.355 13.276,0.201 25.746,0.842 36.966,2.15 9.82,1.14 18.085,2.761 24.793,4.698 5.551,1.605 10.048,3.456 13.946,5.062 3.568,1.468 7.1,2.824 10.898,3.762 4.151,1.023 8.937,1.687 14.412,2.109 6.244,0.481 13.33,0.669 21.23,0.744 8.655,0.081 17.93,0.015 27.609,-0.042"
           style="fill:#ed1c24;fill-opacity:1;fill-rule:nonzero;stroke:none"
           id="path1565"
           inkscape:connector-curvature="0" /><path
           d="m 193.57,52.58 c -1.614,2.48 -2.908,4.922 -3.334,7.328 -9.483,0.089 -18.588,0.184 -27.098,0.097 -7.778,-0.084 -14.76,-0.313 -20.901,-0.913 -5.388,-0.531 -10.098,-1.371 -14.135,-2.674 -3.72,-1.202 -7.124,-2.934 -10.559,-4.827 -3.757,-2.068 -8.075,-4.464 -13.51,-6.561 C 97.5,42.509 89.324,40.375 79.542,38.854 68.332,37.113 55.767,36.242 42.337,35.962 28.441,35.667 14.44,36.014 0.609,36.4 c 0.14,-4.527 0.319,-9.243 0.477,-14.076 14.451,-0.565 29.081,-1.05 43.576,-0.682 13.97,0.359 26.998,1.502 38.485,3.801 9.995,2.003 18.255,4.829 24.688,8.113 5.38,2.745 9.516,5.84 13.126,8.505 3.283,2.424 6.553,4.64 10.218,6.176 3.944,1.647 8.649,2.714 14.048,3.377 6.162,0.754 13.201,1.031 21.044,1.121 8.583,0.097 17.759,-0.034 27.299,-0.155"
           style="fill:#ed1c24;fill-opacity:1;fill-rule:nonzero;stroke:none"
           id="path1567"
           inkscape:connector-curvature="0" /><path
           d="m 1.496,93.23 c 23.651,0.435 47.4,0.866 69.579,1.023 9.892,0.07 18.732,0.078 26.421,0.018 6.53,-0.052 11.98,-0.155 16.483,-0.292 -2.237,5.499 -5.27,10.498 -6.227,15.772 -0.941,5.205 0.411,10.96 2.633,16.871 2.391,6.366 5.285,12.702 5.82,18.982 0.472,5.575 -1.629,10.543 -4.178,14.675 -4.476,3.083 -10.068,5.92 -16.794,8.119 -7.624,2.492 -16.501,4.147 -26.305,5.022 -21.595,1.925 -44.639,-0.048 -67.41,-1.9 C 1.816,166.537 1.9,160.521 1.725,153.514 1.535,145.896 1.121,138.217 0.855,130.896 0.389,117.864 1.122,105.938 1.496,93.23"
           style="fill:#29438a;fill-opacity:1;fill-rule:nonzero;stroke:none"
           id="path1569"
           inkscape:connector-curvature="0" /><path
           d="m 9.331,168.802 c 1.197,0.095 2.397,0.187 3.597,0.283 0.276,0.757 0.549,1.493 0.817,2.211 0.449,-0.662 0.897,-1.341 1.334,-2.044 1.248,0.096 2.497,0.189 3.748,0.28 -0.961,-0.528 -1.929,-1.063 -2.896,-1.615 0.441,-0.767 0.875,-1.56 1.29,-2.382 -1.03,0.452 -2.058,0.896 -3.089,1.319 -0.941,-0.578 -1.885,-1.167 -2.829,-1.772 0.366,0.879 0.728,1.732 1.084,2.563 -1.02,0.396 -2.038,0.784 -3.056,1.157"
           style="fill:#ffffff;fill-opacity:1;fill-rule:nonzero;stroke:none"
           id="path1571"
           inkscape:connector-curvature="0" /><path
           d="m 32.25,170.38 c 1.23,0.067 2.46,0.122 3.689,0.176 0.239,0.741 0.468,1.464 0.686,2.169 0.532,-0.671 1.058,-1.362 1.571,-2.077 1.185,0.048 2.367,0.089 3.548,0.12 -0.846,-0.482 -1.705,-0.967 -2.566,-1.475 0.508,-0.775 1.002,-1.579 1.468,-2.414 -1.063,0.494 -2.135,0.967 -3.21,1.425 -0.931,-0.543 -1.865,-1.104 -2.809,-1.675 0.284,0.86 0.547,1.697 0.8,2.51 -1.057,0.429 -2.116,0.845 -3.177,1.241"
           style="fill:#ffffff;fill-opacity:1;fill-rule:nonzero;stroke:none"
           id="path1573"
           inkscape:connector-curvature="0" /><path
           d="m 54.937,170.882 c 1.167,-0.016 2.328,-0.042 3.483,-0.072 0.151,0.704 0.281,1.394 0.398,2.065 0.589,-0.691 1.171,-1.4 1.733,-2.134 1.15,-0.043 2.293,-0.094 3.428,-0.153 -0.803,-0.396 -1.619,-0.809 -2.447,-1.233 0.591,-0.79 1.154,-1.61 1.692,-2.461 -1.045,0.557 -2.1,1.097 -3.169,1.616 -0.853,-0.468 -1.718,-0.954 -2.597,-1.452 0.256,0.823 0.489,1.623 0.696,2.401 -1.065,0.491 -2.137,0.966 -3.217,1.423"
           style="fill:#ffffff;fill-opacity:1;fill-rule:nonzero;stroke:none"
           id="path1575"
           inkscape:connector-curvature="0" /><path
           d="m 75.949,169.581 c 1.043,-0.124 2.075,-0.255 3.094,-0.402 0.035,0.656 0.056,1.295 0.057,1.918 0.604,-0.708 1.196,-1.436 1.767,-2.186 0.958,-0.146 1.903,-0.3 2.835,-0.467 -0.621,-0.291 -1.258,-0.601 -1.907,-0.927 0.599,-0.804 1.173,-1.634 1.706,-2.496 -0.915,0.625 -1.848,1.232 -2.799,1.823 -0.684,-0.367 -1.381,-0.754 -2.099,-1.149 0.135,0.767 0.232,1.513 0.3,2.237 -0.971,0.566 -1.957,1.114 -2.954,1.649"
           style="fill:#ffffff;fill-opacity:1;fill-rule:nonzero;stroke:none"
           id="path1577"
           inkscape:connector-curvature="0" /><path
           d="m 93.452,166.286 c 0.791,-0.217 1.569,-0.437 2.334,-0.668 -0.053,0.595 -0.13,1.175 -0.22,1.74 0.555,-0.71 1.099,-1.432 1.621,-2.175 0.74,-0.236 1.466,-0.481 2.179,-0.731 -0.397,-0.211 -0.81,-0.427 -1.234,-0.663 0.519,-0.789 1.01,-1.602 1.464,-2.439 -0.711,0.654 -1.438,1.298 -2.186,1.927 -0.471,-0.272 -0.961,-0.555 -1.467,-0.855 0.015,0.705 -0.004,1.389 -0.06,2.052 -0.795,0.614 -1.608,1.217 -2.431,1.812"
           style="fill:#ffffff;fill-opacity:1;fill-rule:nonzero;stroke:none"
           id="path1579"
           inkscape:connector-curvature="0" /><path
           d="m 106.644,161.442 c 0.575,-0.278 1.14,-0.559 1.69,-0.851 -0.146,0.545 -0.314,1.075 -0.494,1.592 0.519,-0.702 1.029,-1.412 1.52,-2.141 0.516,-0.283 1.024,-0.571 1.518,-0.861 -0.208,-0.152 -0.426,-0.315 -0.66,-0.484 0.469,-0.759 0.908,-1.537 1.311,-2.337 -0.559,0.663 -1.14,1.318 -1.739,1.963 -0.257,-0.209 -0.528,-0.43 -0.817,-0.658 -0.082,0.644 -0.202,1.269 -0.352,1.873 -0.645,0.642 -1.303,1.277 -1.977,1.904"
           style="fill:#ffffff;fill-opacity:1;fill-rule:nonzero;stroke:none"
           id="path1581"
           inkscape:connector-curvature="0" /><path
           d="m 108.706,146.818 c 0.594,-0.218 1.173,-0.438 1.739,-0.665 0.334,0.866 0.625,1.721 0.868,2.561 0.113,-0.984 0.172,-1.982 0.186,-2.99 0.533,-0.221 1.053,-0.449 1.563,-0.675 -0.505,-0.353 -1.035,-0.709 -1.577,-1.076 -0.033,-1.017 -0.105,-2.038 -0.21,-3.062 -0.254,0.757 -0.527,1.516 -0.826,2.273 -0.584,-0.431 -1.185,-0.87 -1.803,-1.313 0.432,0.921 0.83,1.837 1.196,2.746 -0.355,0.737 -0.733,1.471 -1.136,2.201"
           style="fill:#ffffff;fill-opacity:1;fill-rule:nonzero;stroke:none"
           id="path1583"
           inkscape:connector-curvature="0" /><path
           d="m 95.159,150.567 c 0.812,-0.162 1.611,-0.334 2.395,-0.512 0.422,0.962 0.801,1.911 1.137,2.846 0.15,-1.044 0.248,-2.107 0.303,-3.18 0.759,-0.184 1.504,-0.371 2.238,-0.565 -0.7,-0.426 -1.416,-0.864 -2.148,-1.311 0.03,-1.089 0.023,-2.185 -0.016,-3.285 -0.411,0.778 -0.844,1.556 -1.297,2.328 -0.789,-0.51 -1.591,-1.029 -2.411,-1.555 0.503,1.016 0.98,2.023 1.424,3.026 -0.518,0.743 -1.061,1.479 -1.625,2.208"
           style="fill:#ffffff;fill-opacity:1;fill-rule:nonzero;stroke:none"
           id="path1585"
           inkscape:connector-curvature="0" /><path
           d="m 77.209,153.029 c 1.069,-0.089 2.125,-0.184 3.171,-0.29 0.465,1.055 0.901,2.094 1.297,3.119 0.234,-1.086 0.424,-2.193 0.573,-3.315 0.98,-0.109 1.949,-0.225 2.906,-0.345 -0.901,-0.521 -1.819,-1.053 -2.75,-1.596 0.162,-1.137 0.283,-2.283 0.382,-3.434 -0.648,0.776 -1.316,1.544 -2.006,2.305 -0.963,-0.607 -1.939,-1.22 -2.924,-1.845 0.557,1.096 1.094,2.185 1.603,3.268 -0.732,0.72 -1.48,1.432 -2.252,2.133"
           style="fill:#ffffff;fill-opacity:1;fill-rule:nonzero;stroke:none"
           id="path1587"
           inkscape:connector-curvature="0" /><path
           d="m 55.718,153.85 c 1.191,0 2.377,-0.007 3.557,-0.02 0.494,1.117 0.966,2.22 1.41,3.31 0.286,-1.097 0.543,-2.212 0.768,-3.343 1.175,-0.024 2.343,-0.049 3.505,-0.086 -1.041,-0.615 -2.088,-1.245 -3.144,-1.881 0.233,-1.143 0.44,-2.295 0.626,-3.455 -0.828,0.73 -1.67,1.454 -2.528,2.168 -1.073,-0.691 -2.149,-1.397 -3.232,-2.102 0.585,1.15 1.157,2.295 1.71,3.434 -0.878,0.667 -1.767,1.328 -2.672,1.975"
           style="fill:#ffffff;fill-opacity:1;fill-rule:nonzero;stroke:none"
           id="path1589"
           inkscape:connector-curvature="0" /><path
           d="m 32.602,153.201 c 1.251,0.063 2.502,0.123 3.752,0.182 0.477,1.147 0.943,2.281 1.394,3.4 0.324,-1.083 0.626,-2.184 0.902,-3.302 1.205,0.049 2.41,0.092 3.613,0.135 -1.016,-0.687 -2.038,-1.377 -3.06,-2.074 0.261,-1.127 0.505,-2.263 0.726,-3.406 -0.912,0.676 -1.829,1.348 -2.76,2.01 -1.075,-0.746 -2.146,-1.504 -3.219,-2.26 0.497,1.169 0.988,2.334 1.47,3.494 -0.932,0.615 -1.87,1.225 -2.818,1.821"
           style="fill:#ffffff;fill-opacity:1;fill-rule:nonzero;stroke:none"
           id="path1591"
           inkscape:connector-curvature="0" /><path
           d="m 9.374,151.678 c 1.209,0.093 2.421,0.179 3.635,0.269 0.407,1.143 0.803,2.276 1.193,3.395 0.345,-1.062 0.663,-2.145 0.985,-3.238 1.262,0.089 2.528,0.182 3.794,0.267 -1.058,-0.718 -2.116,-1.437 -3.17,-2.162 0.304,-1.103 0.6,-2.212 0.888,-3.326 -0.942,0.635 -1.884,1.27 -2.835,1.893 -1.005,-0.768 -2.015,-1.525 -3.014,-2.295 0.471,1.161 0.936,2.321 1.406,3.475 -0.959,0.579 -1.917,1.156 -2.882,1.722"
           style="fill:#ffffff;fill-opacity:1;fill-rule:nonzero;stroke:none"
           id="path1593"
           inkscape:connector-curvature="0" /><path
           d="m 8.219,132.197 c 1.149,0.066 2.3,0.131 3.453,0.195 0.401,1.09 0.815,2.19 1.224,3.306 0.278,-1.075 0.561,-2.138 0.843,-3.192 1.199,0.066 2.4,0.132 3.603,0.194 -1.018,-0.703 -2.028,-1.402 -3.035,-2.09 0.292,-0.993 0.584,-1.976 0.888,-2.945 -0.911,0.543 -1.82,1.092 -2.728,1.641 -0.946,-0.646 -1.888,-1.283 -2.823,-1.916 0.424,1.001 0.856,2.014 1.293,3.042 -0.907,0.584 -1.811,1.175 -2.718,1.765"
           style="fill:#ffffff;fill-opacity:1;fill-rule:nonzero;stroke:none"
           id="path1595"
           inkscape:connector-curvature="0" /><path
           d="m 7.893,115.195 c 1.132,0.042 2.266,0.082 3.402,0.123 0.299,0.898 0.595,1.805 0.901,2.715 0.368,-0.887 0.742,-1.769 1.135,-2.642 1.179,0.042 2.36,0.083 3.544,0.122 -0.927,-0.593 -1.847,-1.194 -2.771,-1.785 0.405,-0.831 0.819,-1.658 1.24,-2.485 -0.987,0.496 -1.967,0.992 -2.942,1.487 -0.881,-0.558 -1.763,-1.111 -2.646,-1.663 0.334,0.847 0.666,1.697 1.003,2.547 -0.962,0.527 -1.917,1.053 -2.866,1.581"
           style="fill:#ffffff;fill-opacity:1;fill-rule:nonzero;stroke:none"
           id="path1597"
           inkscape:connector-curvature="0" /><path
           d="m 8.917,99.569 c 1.197,0.027 2.396,0.055 3.596,0.082 0.262,0.937 0.512,1.87 0.768,2.793 0.458,-0.907 0.92,-1.822 1.383,-2.745 1.247,0.028 2.495,0.055 3.745,0.083 -0.945,-0.59 -1.893,-1.182 -2.848,-1.774 0.468,-0.917 0.933,-1.846 1.388,-2.785 -1.058,0.577 -2.113,1.15 -3.162,1.719 -0.924,-0.609 -1.849,-1.222 -2.783,-1.834 0.347,0.947 0.679,1.889 1.009,2.825 -1.037,0.548 -2.069,1.095 -3.096,1.636"
           style="fill:#ffffff;fill-opacity:1;fill-rule:nonzero;stroke:none"
           id="path1599"
           inkscape:connector-curvature="0" /><path
           d="m 31.792,100.05 c 1.224,0.023 2.448,0.045 3.669,0.066 0.201,0.947 0.398,1.884 0.593,2.816 0.549,-0.918 1.1,-1.844 1.651,-2.779 1.176,0.019 2.351,0.037 3.523,0.055 -0.816,-0.584 -1.641,-1.17 -2.468,-1.765 0.547,-0.93 1.092,-1.868 1.628,-2.815 -1.104,0.587 -2.208,1.171 -3.313,1.749 -0.89,-0.61 -1.786,-1.228 -2.692,-1.843 0.227,0.956 0.443,1.905 0.644,2.848 -1.079,0.561 -2.159,1.118 -3.235,1.668"
           style="fill:#ffffff;fill-opacity:1;fill-rule:nonzero;stroke:none"
           id="path1601"
           inkscape:connector-curvature="0" /><path
           d="m 54.286,100.363 c 1.151,0.01 2.297,0.018 3.437,0.026 0.094,0.938 0.189,1.866 0.277,2.788 0.604,-0.919 1.214,-1.843 1.822,-2.776 1.132,0.006 2.257,0.011 3.373,0.014 -0.756,-0.569 -1.521,-1.145 -2.301,-1.72 0.64,-0.923 1.271,-1.857 1.891,-2.799 -1.088,0.59 -2.183,1.176 -3.283,1.758 -0.793,-0.599 -1.597,-1.206 -2.414,-1.811 0.173,0.95 0.329,1.893 0.474,2.829 -1.09,0.566 -2.182,1.133 -3.276,1.691"
           style="fill:#ffffff;fill-opacity:1;fill-rule:nonzero;stroke:none"
           id="path1603"
           inkscape:connector-curvature="0" /><path
           d="m 74.936,100.395 c 1.02,-0.008 2.028,-0.016 3.024,-0.026 -0.017,0.907 -0.044,1.805 -0.066,2.697 0.614,-0.899 1.231,-1.804 1.849,-2.716 0.932,-0.011 1.855,-0.023 2.765,-0.037 -0.567,-0.538 -1.148,-1.08 -1.741,-1.626 0.651,-0.901 1.292,-1.809 1.921,-2.725 -0.962,0.581 -1.935,1.159 -2.917,1.735 -0.609,-0.573 -1.232,-1.151 -1.872,-1.731 0.033,0.922 0.044,1.835 0.043,2.741 -0.995,0.566 -1.997,1.128 -3.006,1.688"
           style="fill:#ffffff;fill-opacity:1;fill-rule:nonzero;stroke:none"
           id="path1605"
           inkscape:connector-curvature="0" /><path
           d="m 91.995,100.109 c 0.769,-0.022 1.524,-0.045 2.268,-0.069 -0.107,0.856 -0.221,1.706 -0.325,2.547 0.557,-0.862 1.121,-1.725 1.685,-2.594 0.716,-0.025 1.422,-0.052 2.114,-0.079 -0.348,-0.497 -0.708,-0.999 -1.08,-1.505 0.568,-0.857 1.132,-1.718 1.677,-2.588 -0.757,0.558 -1.527,1.113 -2.307,1.667 -0.396,-0.534 -0.807,-1.072 -1.234,-1.615 -0.09,0.874 -0.199,1.739 -0.318,2.595 -0.818,0.549 -1.644,1.096 -2.48,1.641"
           style="fill:#ffffff;fill-opacity:1;fill-rule:nonzero;stroke:none"
           id="path1607"
           inkscape:connector-curvature="0" /><path
           d="m 104.801,99.571 c 0.559,-0.032 1.107,-0.066 1.643,-0.099 -0.189,0.795 -0.379,1.582 -0.559,2.364 0.511,-0.809 1.034,-1.617 1.557,-2.43 0.504,-0.033 0.997,-0.068 1.479,-0.102 -0.172,-0.454 -0.352,-0.912 -0.542,-1.375 0.511,-0.798 1.017,-1.6 1.509,-2.408 -0.612,0.523 -1.232,1.044 -1.866,1.566 -0.189,-0.489 -0.394,-0.983 -0.613,-1.483 -0.18,0.812 -0.38,1.614 -0.583,2.408 -0.667,0.52 -1.342,1.04 -2.025,1.559"
           style="fill:#ffffff;fill-opacity:1;fill-rule:nonzero;stroke:none"
           id="path1609"
           inkscape:connector-curvature="0" /><path
           d="m 100.366,113.648 c 0.569,-0.083 1.128,-0.169 1.676,-0.255 0.126,0.782 0.291,1.567 0.498,2.353 0.135,-0.85 0.309,-1.69 0.523,-2.519 0.515,-0.085 1.022,-0.172 1.519,-0.26 -0.373,-0.431 -0.737,-0.865 -1.092,-1.304 0.26,-0.781 0.555,-1.553 0.879,-2.318 -0.508,0.525 -1.011,1.055 -1.51,1.59 -0.338,-0.412 -0.671,-0.827 -0.998,-1.245 -0.018,0.737 -0.004,1.476 0.049,2.214 -0.52,0.575 -1.034,1.156 -1.544,1.744"
           style="fill:#ffffff;fill-opacity:1;fill-rule:nonzero;stroke:none"
           id="path1611"
           inkscape:connector-curvature="0" /><path
           d="m 87.537,115.078 c 0.76,-0.062 1.51,-0.127 2.248,-0.194 0.175,0.839 0.385,1.681 0.635,2.524 0.2,-0.895 0.439,-1.779 0.717,-2.65 0.715,-0.07 1.419,-0.141 2.111,-0.215 -0.519,-0.477 -1.033,-0.956 -1.541,-1.439 0.337,-0.826 0.709,-1.643 1.109,-2.452 -0.657,0.544 -1.311,1.091 -1.962,1.642 -0.507,-0.453 -1.015,-0.909 -1.519,-1.367 0.04,0.788 0.11,1.577 0.212,2.367 -0.674,0.589 -1.345,1.184 -2.01,1.784"
           style="fill:#ffffff;fill-opacity:1;fill-rule:nonzero;stroke:none"
           id="path1613"
           inkscape:connector-curvature="0" /><path
           d="m 70.842,115.988 c 0.988,-0.031 1.966,-0.066 2.936,-0.104 0.21,0.885 0.449,1.772 0.725,2.663 0.303,-0.922 0.639,-1.835 1.009,-2.734 0.909,-0.04 1.809,-0.082 2.698,-0.126 -0.692,-0.525 -1.383,-1.05 -2.069,-1.578 0.451,-0.855 0.933,-1.7 1.435,-2.54 -0.86,0.55 -1.719,1.101 -2.577,1.654 -0.676,-0.498 -1.353,-0.996 -2.027,-1.498 0.119,0.829 0.264,1.659 0.435,2.488 -0.859,0.59 -1.715,1.181 -2.565,1.775"
           style="fill:#ffffff;fill-opacity:1;fill-rule:nonzero;stroke:none"
           id="path1615"
           inkscape:connector-curvature="0" /><path
           d="m 50.972,116.24 c 1.101,0.004 2.197,0.005 3.288,0.004 0.256,0.911 0.543,1.823 0.849,2.742 0.36,-0.926 0.752,-1.84 1.164,-2.747 1.086,-0.005 2.165,-0.012 3.24,-0.023 -0.828,-0.564 -1.654,-1.13 -2.474,-1.698 0.484,-0.859 0.988,-1.713 1.514,-2.56 -0.991,0.537 -1.979,1.073 -2.965,1.61 -0.813,-0.532 -1.622,-1.07 -2.435,-1.603 0.219,0.853 0.451,1.707 0.708,2.56 -0.969,0.568 -1.931,1.141 -2.889,1.715"
           style="fill:#ffffff;fill-opacity:1;fill-rule:nonzero;stroke:none"
           id="path1617"
           inkscape:connector-curvature="0" /><path
           d="m 29.557,115.899 c 1.162,0.03 2.323,0.06 3.484,0.086 0.294,0.913 0.61,1.83 0.932,2.755 0.379,-0.91 0.777,-1.814 1.199,-2.707 1.118,0.023 2.234,0.047 3.349,0.067 -0.839,-0.59 -1.674,-1.179 -2.508,-1.767 0.444,-0.849 0.904,-1.693 1.376,-2.536 -1.02,0.515 -2.033,1.03 -3.041,1.546 -0.873,-0.551 -1.743,-1.108 -2.613,-1.66 0.236,0.858 0.485,1.716 0.748,2.573 -0.983,0.544 -1.956,1.097 -2.926,1.643"
           style="fill:#ffffff;fill-opacity:1;fill-rule:nonzero;stroke:none"
           id="path1619"
           inkscape:connector-curvature="0" /><path
           d="m 19.106,107.968 c 1.171,0.031 2.343,0.061 3.516,0.091 0.25,0.915 0.506,1.825 0.768,2.735 0.462,-0.892 0.929,-1.786 1.413,-2.681 1.174,0.03 2.347,0.056 3.521,0.084 -0.886,-0.57 -1.773,-1.141 -2.663,-1.715 0.524,-0.872 1.054,-1.749 1.588,-2.634 -1.065,0.538 -2.126,1.071 -3.181,1.601 -0.898,-0.575 -1.797,-1.154 -2.703,-1.732 0.28,0.9 0.558,1.794 0.837,2.683 -1.039,0.523 -2.071,1.047 -3.096,1.568"
           style="fill:#ffffff;fill-opacity:1;fill-rule:nonzero;stroke:none"
           id="path1621"
           inkscape:connector-curvature="0" /><path
           d="m 41.336,108.442 c 1.169,0.016 2.334,0.032 3.496,0.046 0.147,0.915 0.302,1.827 0.471,2.738 0.536,-0.906 1.087,-1.81 1.656,-2.715 1.14,0.011 2.274,0.02 3.405,0.028 -0.807,-0.556 -1.619,-1.113 -2.432,-1.676 0.554,-0.884 1.127,-1.767 1.701,-2.658 -1.083,0.551 -2.164,1.098 -3.241,1.643 -0.798,-0.567 -1.601,-1.136 -2.408,-1.706 0.162,0.899 0.325,1.794 0.494,2.683 -1.051,0.542 -2.099,1.08 -3.142,1.617"
           style="fill:#ffffff;fill-opacity:1;fill-rule:nonzero;stroke:none"
           id="path1623"
           inkscape:connector-curvature="0" /><path
           d="m 62.511,108.544 c 1.072,-0.006 2.134,-0.016 3.188,-0.027 0.071,0.898 0.153,1.795 0.263,2.688 0.511,-0.909 1.05,-1.811 1.61,-2.711 1.03,-0.015 2.051,-0.03 3.064,-0.049 -0.669,-0.526 -1.339,-1.056 -2.014,-1.59 0.588,-0.877 1.188,-1.755 1.798,-2.638 -1.016,0.561 -2.033,1.116 -3.051,1.671 -0.663,-0.542 -1.334,-1.086 -2.01,-1.636 0.035,0.884 0.07,1.762 0.12,2.635 -0.99,0.554 -1.98,1.106 -2.968,1.657"
           style="fill:#ffffff;fill-opacity:1;fill-rule:nonzero;stroke:none"
           id="path1625"
           inkscape:connector-curvature="0" /><path
           d="m 81.104,108.159 c 0.855,-0.033 1.701,-0.067 2.535,-0.102 -0.01,0.86 0.004,1.72 0.047,2.577 0.494,-0.889 1.018,-1.772 1.564,-2.651 0.813,-0.038 1.615,-0.078 2.406,-0.121 -0.459,-0.488 -0.918,-0.979 -1.379,-1.475 0.545,-0.853 1.108,-1.704 1.681,-2.557 -0.894,0.554 -1.79,1.108 -2.69,1.663 -0.506,-0.504 -1.015,-1.012 -1.531,-1.525 -0.028,0.847 -0.045,1.688 -0.046,2.524 -0.861,0.556 -1.725,1.11 -2.587,1.667"
           style="fill:#ffffff;fill-opacity:1;fill-rule:nonzero;stroke:none"
           id="path1627"
           inkscape:connector-curvature="0" /><path
           d="m 96.117,107.299 c 0.679,-0.054 1.347,-0.111 2.001,-0.17 -0.082,0.807 -0.137,1.614 -0.156,2.418 0.389,-0.846 0.811,-1.685 1.258,-2.519 0.604,-0.056 1.195,-0.114 1.775,-0.174 -0.295,-0.443 -0.587,-0.89 -0.877,-1.343 0.483,-0.81 0.988,-1.616 1.506,-2.423 -0.682,0.533 -1.365,1.067 -2.053,1.602 -0.31,-0.46 -0.624,-0.923 -0.942,-1.393 -0.133,0.793 -0.259,1.582 -0.361,2.368 -0.715,0.543 -1.433,1.086 -2.151,1.634"
           style="fill:#ffffff;fill-opacity:1;fill-rule:nonzero;stroke:none"
           id="path1629"
           inkscape:connector-curvature="0" /><path
           d="m 95.05,122.076 c 0.695,-0.102 1.379,-0.206 2.053,-0.313 0.374,0.883 0.78,1.77 1.215,2.662 -0.056,-0.96 -0.089,-1.91 -0.083,-2.848 0.62,-0.104 1.227,-0.21 1.826,-0.319 -0.575,-0.424 -1.146,-0.848 -1.713,-1.275 0.058,-0.92 0.153,-1.83 0.29,-2.726 -0.451,0.595 -0.897,1.198 -1.338,1.806 -0.576,-0.454 -1.145,-0.911 -1.71,-1.369 0.247,0.859 0.537,1.721 0.865,2.586 -0.47,0.593 -0.939,1.191 -1.405,1.796"
           style="fill:#ffffff;fill-opacity:1;fill-rule:nonzero;stroke:none"
           id="path1631"
           inkscape:connector-curvature="0" /><path
           d="m 79.799,123.674 c 0.863,-0.061 1.717,-0.125 2.559,-0.193 0.407,0.943 0.843,1.893 1.305,2.85 0.081,-1.009 0.186,-2.005 0.324,-2.987 0.825,-0.072 1.637,-0.146 2.439,-0.226 -0.716,-0.478 -1.426,-0.957 -2.136,-1.436 0.153,-0.962 0.338,-1.914 0.563,-2.849 -0.674,0.606 -1.344,1.219 -2.014,1.836 -0.734,-0.508 -1.463,-1.017 -2.187,-1.527 0.31,0.911 0.66,1.826 1.037,2.748 -0.629,0.589 -1.259,1.185 -1.89,1.784"
           style="fill:#ffffff;fill-opacity:1;fill-rule:nonzero;stroke:none"
           id="path1633"
           inkscape:connector-curvature="0" /><path
           d="m 61.178,124.444 c 1.066,-0.019 2.125,-0.038 3.176,-0.064 0.409,0.983 0.846,1.975 1.309,2.974 0.157,-1.021 0.348,-2.03 0.56,-3.023 1.028,-0.029 2.049,-0.064 3.063,-0.101 -0.878,-0.53 -1.755,-1.056 -2.627,-1.584 0.253,-0.979 0.538,-1.946 0.854,-2.898 -0.818,0.591 -1.635,1.188 -2.451,1.785 -0.837,-0.56 -1.673,-1.114 -2.502,-1.671 0.297,0.948 0.627,1.903 0.985,2.863 -0.79,0.569 -1.579,1.142 -2.367,1.719"
           style="fill:#ffffff;fill-opacity:1;fill-rule:nonzero;stroke:none"
           id="path1635"
           inkscape:connector-curvature="0" /><path
           d="m 40.216,124.372 c 1.152,0.024 2.3,0.045 3.446,0.062 0.392,0.997 0.802,2.003 1.231,3.021 0.272,-1.011 0.56,-2.008 0.869,-2.992 1.126,0.014 2.248,0.024 3.366,0.032 -0.957,-0.569 -1.909,-1.134 -2.855,-1.699 0.305,-0.973 0.638,-1.931 0.993,-2.878 -0.922,0.563 -1.841,1.128 -2.755,1.697 -0.907,-0.591 -1.81,-1.179 -2.709,-1.765 0.343,0.959 0.704,1.926 1.089,2.9 -0.894,0.537 -1.785,1.08 -2.675,1.622"
           style="fill:#ffffff;fill-opacity:1;fill-rule:nonzero;stroke:none"
           id="path1637"
           inkscape:connector-curvature="0" /><path
           d="m 18.406,123.667 c 1.145,0.048 2.291,0.094 3.439,0.14 0.392,0.987 0.795,1.987 1.212,2.998 0.289,-0.987 0.599,-1.957 0.922,-2.916 1.15,0.045 2.301,0.085 3.451,0.125 -0.966,-0.588 -1.926,-1.173 -2.884,-1.752 0.36,-0.949 0.746,-1.882 1.137,-2.81 -0.949,0.532 -1.892,1.069 -2.831,1.608 -0.945,-0.601 -1.88,-1.207 -2.818,-1.8 0.368,0.953 0.759,1.909 1.154,2.879 -0.931,0.507 -1.858,1.017 -2.782,1.528"
           style="fill:#ffffff;fill-opacity:1;fill-rule:nonzero;stroke:none"
           id="path1639"
           inkscape:connector-curvature="0" /><path
           d="m 30.27,133.31 c 1.187,0.049 2.374,0.095 3.56,0.136 0.503,1.111 1.021,2.231 1.538,3.367 0.205,-1.109 0.421,-2.206 0.643,-3.291 1.144,0.038 2.287,0.071 3.429,0.105 -0.998,-0.689 -1.986,-1.379 -2.972,-2.061 0.235,-1.024 0.478,-2.037 0.733,-3.036 -0.887,0.578 -1.777,1.155 -2.665,1.739 -1.003,-0.644 -1.999,-1.285 -2.995,-1.915 0.439,1.017 0.885,2.05 1.344,3.093 -0.874,0.615 -1.741,1.241 -2.615,1.863"
           style="fill:#ffffff;fill-opacity:1;fill-rule:nonzero;stroke:none"
           id="path1641"
           inkscape:connector-curvature="0" /><path
           d="m 52.224,133.842 c 1.133,0.004 2.261,0.007 3.385,0.003 0.555,1.106 1.127,2.219 1.707,3.343 0.114,-1.129 0.238,-2.248 0.366,-3.355 1.12,-0.009 2.233,-0.022 3.34,-0.041 -1.044,-0.653 -2.087,-1.303 -3.124,-1.955 0.191,-1.045 0.387,-2.078 0.607,-3.096 -0.812,0.615 -1.624,1.237 -2.441,1.858 -1.009,-0.612 -2.013,-1.225 -3.013,-1.832 0.512,1.021 1.051,2.046 1.598,3.087 -0.807,0.658 -1.612,1.324 -2.425,1.988"
           style="fill:#ffffff;fill-opacity:1;fill-rule:nonzero;stroke:none"
           id="path1643"
           inkscape:connector-curvature="0" /><path
           d="m 72.729,133.399 c 1.022,-0.054 2.038,-0.111 3.041,-0.176 0.576,1.069 1.169,2.143 1.767,3.226 0.002,-1.127 0.009,-2.242 0.028,-3.346 0.942,-0.067 1.874,-0.139 2.797,-0.214 -0.949,-0.589 -1.896,-1.181 -2.845,-1.769 0.09,-1.044 0.192,-2.077 0.317,-3.095 -0.641,0.647 -1.285,1.3 -1.933,1.955 -0.922,-0.56 -1.845,-1.116 -2.763,-1.675 0.5,0.989 1.023,1.987 1.562,2.994 -0.653,0.696 -1.309,1.396 -1.971,2.1"
           style="fill:#ffffff;fill-opacity:1;fill-rule:nonzero;stroke:none"
           id="path1645"
           inkscape:connector-curvature="0" /><path
           d="m 90.039,131.862 c 0.79,-0.104 1.568,-0.214 2.335,-0.327 0.579,1 1.172,2.005 1.769,3.017 -0.128,-1.087 -0.253,-2.164 -0.365,-3.23 0.742,-0.118 1.474,-0.239 2.192,-0.362 -0.787,-0.52 -1.577,-1.04 -2.367,-1.562 -0.064,-1.008 -0.111,-2.005 -0.135,-2.989 -0.411,0.65 -0.824,1.306 -1.239,1.969 -0.781,-0.496 -1.563,-0.991 -2.344,-1.486 0.471,0.937 0.969,1.879 1.482,2.831 -0.439,0.707 -0.88,1.421 -1.328,2.139"
           style="fill:#ffffff;fill-opacity:1;fill-rule:nonzero;stroke:none"
           id="path1647"
           inkscape:connector-curvature="0" /><path
           d="m 103.358,129.451 c 0.592,-0.142 1.17,-0.284 1.738,-0.431 0.534,0.92 1.078,1.842 1.627,2.768 -0.195,-1.025 -0.387,-2.041 -0.569,-3.047 0.534,-0.145 1.059,-0.291 1.574,-0.44 -0.634,-0.455 -1.27,-0.91 -1.905,-1.37 -0.152,-0.95 -0.288,-1.888 -0.397,-2.817 -0.256,0.635 -0.507,1.275 -0.762,1.922 -0.615,-0.437 -1.229,-0.876 -1.842,-1.316 0.433,0.87 0.889,1.744 1.362,2.623 -0.272,0.696 -0.546,1.399 -0.826,2.108"
           style="fill:#ffffff;fill-opacity:1;fill-rule:nonzero;stroke:none"
           id="path1649"
           inkscape:connector-curvature="0" /><path
           d="m 100.461,139.93 c 0.723,-0.168 1.431,-0.337 2.125,-0.513 0.541,1.001 1.066,1.998 1.565,2.994 -0.104,-1.1 -0.24,-2.2 -0.397,-3.297 0.64,-0.169 1.266,-0.343 1.881,-0.521 -0.686,-0.449 -1.381,-0.902 -2.084,-1.361 -0.147,-1.057 -0.305,-2.107 -0.467,-3.151 -0.291,0.709 -0.593,1.421 -0.907,2.136 -0.742,-0.466 -1.496,-0.936 -2.255,-1.407 0.559,0.967 1.117,1.937 1.669,2.909 -0.362,0.736 -0.737,1.473 -1.13,2.211"
           style="fill:#ffffff;fill-opacity:1;fill-rule:nonzero;stroke:none"
           id="path1651"
           inkscape:connector-curvature="0" /><path
           d="m 84.543,142.555 c 0.906,-0.099 1.801,-0.207 2.683,-0.32 0.593,1.094 1.166,2.187 1.725,3.277 0.02,-1.167 0.009,-2.336 -0.017,-3.502 0.861,-0.121 1.712,-0.242 2.55,-0.372 -0.847,-0.533 -1.706,-1.069 -2.57,-1.61 -0.053,-1.114 -0.118,-2.222 -0.184,-3.323 -0.53,0.721 -1.07,1.443 -1.626,2.165 -0.915,-0.549 -1.839,-1.096 -2.767,-1.649 0.616,1.049 1.241,2.096 1.854,3.152 -0.534,0.729 -1.084,1.457 -1.648,2.182"
           style="fill:#ffffff;fill-opacity:1;fill-rule:nonzero;stroke:none"
           id="path1653"
           inkscape:connector-curvature="0" /><path
           d="m 64.938,143.845 c 1.125,-0.032 2.242,-0.069 3.349,-0.113 0.587,1.164 1.175,2.322 1.738,3.486 0.097,-1.189 0.173,-2.379 0.231,-3.569 1.085,-0.051 2.162,-0.106 3.227,-0.17 -1.021,-0.614 -2.052,-1.226 -3.083,-1.847 0.066,-1.139 0.131,-2.271 0.19,-3.396 -0.701,0.691 -1.412,1.383 -2.133,2.072 -1.017,-0.625 -2.035,-1.249 -3.051,-1.879 0.569,1.107 1.146,2.218 1.719,3.336 -0.715,0.697 -1.449,1.387 -2.187,2.08"
           style="fill:#ffffff;fill-opacity:1;fill-rule:nonzero;stroke:none"
           id="path1655"
           inkscape:connector-curvature="0" /><path
           d="m 42.831,143.779 c 1.212,0.036 2.423,0.065 3.632,0.092 0.538,1.195 1.075,2.391 1.605,3.587 0.212,-1.183 0.421,-2.363 0.609,-3.545 1.186,0.017 2.369,0.033 3.549,0.044 -1.091,-0.681 -2.181,-1.363 -3.271,-2.046 0.159,-1.131 0.316,-2.255 0.473,-3.371 -0.84,0.644 -1.684,1.289 -2.534,1.934 -1.057,-0.682 -2.113,-1.359 -3.163,-2.039 0.551,1.129 1.113,2.264 1.67,3.409 -0.848,0.65 -1.706,1.294 -2.57,1.935"
           style="fill:#ffffff;fill-opacity:1;fill-rule:nonzero;stroke:none"
           id="path1657"
           inkscape:connector-curvature="0" /><path
           d="m 19.889,142.707 c 1.203,0.071 2.406,0.143 3.611,0.213 0.495,1.195 0.986,2.394 1.487,3.591 0.256,-1.156 0.51,-2.311 0.756,-3.465 1.208,0.067 2.417,0.129 3.626,0.191 -1.072,-0.717 -2.14,-1.432 -3.205,-2.145 0.268,-1.101 0.542,-2.195 0.808,-3.283 -0.904,0.6 -1.811,1.199 -2.718,1.802 -1.052,-0.703 -2.096,-1.408 -3.137,-2.106 0.505,1.124 1.021,2.254 1.533,3.395 -0.917,0.604 -1.837,1.206 -2.761,1.807"
           style="fill:#ffffff;fill-opacity:1;fill-rule:nonzero;stroke:none"
           id="path1659"
           inkscape:connector-curvature="0" /><path
           d="m 20.979,161.868 c 1.236,0.09 2.474,0.171 3.713,0.253 0.367,1.016 0.717,2.007 1.053,2.972 0.437,-0.911 0.859,-1.851 1.251,-2.825 1.241,0.078 2.483,0.149 3.725,0.221 -1.016,-0.616 -2.029,-1.253 -3.053,-1.891 0.412,-0.966 0.804,-1.956 1.178,-2.966 -0.997,0.565 -2.002,1.115 -3.011,1.656 -1.035,-0.668 -2.068,-1.352 -3.105,-2.041 0.445,1.058 0.881,2.098 1.304,3.119 -1.015,0.513 -2.033,1.015 -3.055,1.502"
           style="fill:#ffffff;fill-opacity:1;fill-rule:nonzero;stroke:none"
           id="path1661"
           inkscape:connector-curvature="0" /><path
           d="m 44.524,163.077 c 1.243,0.034 2.483,0.063 3.719,0.082 0.307,0.99 0.588,1.956 0.841,2.895 0.505,-0.921 0.979,-1.877 1.423,-2.864 1.214,0.016 2.423,0.02 3.628,0.018 -0.97,-0.554 -1.947,-1.13 -2.937,-1.712 0.389,-0.979 0.742,-1.987 1.067,-3.018 -0.969,0.617 -1.951,1.217 -2.943,1.803 -0.99,-0.622 -1.985,-1.258 -2.99,-1.899 0.423,1.039 0.821,2.06 1.204,3.06 -0.996,0.557 -1.997,1.107 -3.012,1.635"
           style="fill:#ffffff;fill-opacity:1;fill-rule:nonzero;stroke:none"
           id="path1663"
           inkscape:connector-curvature="0" /><path
           d="m 67.096,162.898 c 1.145,-0.057 2.28,-0.123 3.405,-0.196 0.26,0.939 0.473,1.857 0.659,2.745 0.484,-0.93 0.933,-1.892 1.342,-2.885 1.101,-0.083 2.192,-0.173 3.274,-0.274 -0.84,-0.461 -1.696,-0.937 -2.566,-1.431 0.375,-0.986 0.71,-1.998 1.007,-3.032 -0.86,0.677 -1.743,1.34 -2.644,1.984 -0.892,-0.537 -1.797,-1.087 -2.717,-1.649 0.367,0.993 0.699,1.967 1.004,2.922 -0.905,0.62 -1.827,1.226 -2.764,1.816"
           style="fill:#ffffff;fill-opacity:1;fill-rule:nonzero;stroke:none"
           id="path1665"
           inkscape:connector-curvature="0" /><path
           d="m 86.95,160.872 c 0.912,-0.151 1.812,-0.308 2.701,-0.475 0.176,0.867 0.307,1.71 0.396,2.529 0.485,-0.923 0.925,-1.879 1.318,-2.862 0.865,-0.175 1.718,-0.357 2.557,-0.547 -0.615,-0.365 -1.243,-0.748 -1.894,-1.142 0.317,-0.965 0.585,-1.957 0.81,-2.967 -0.712,0.723 -1.446,1.436 -2.207,2.134 -0.74,-0.432 -1.497,-0.88 -2.277,-1.336 0.347,0.915 0.656,1.81 0.922,2.689 -0.755,0.671 -1.531,1.33 -2.326,1.977"
           style="fill:#ffffff;fill-opacity:1;fill-rule:nonzero;stroke:none"
           id="path1667"
           inkscape:connector-curvature="0" /><path
           d="m 102.869,157.046 c 0.716,-0.236 1.416,-0.482 2.104,-0.733 0.076,0.784 0.105,1.547 0.087,2.286 0.402,-0.881 0.758,-1.788 1.066,-2.719 0.63,-0.243 1.247,-0.491 1.852,-0.743 -0.416,-0.279 -0.849,-0.573 -1.305,-0.873 0.263,-0.922 0.477,-1.864 0.642,-2.823 -0.481,0.722 -0.991,1.434 -1.522,2.138 -0.523,-0.338 -1.069,-0.688 -1.637,-1.046 0.236,0.829 0.429,1.643 0.574,2.438 -0.595,0.702 -1.216,1.395 -1.861,2.075"
           style="fill:#ffffff;fill-opacity:1;fill-rule:nonzero;stroke:none"
           id="path1669"
           inkscape:connector-curvature="0" /></g></g></g></svg>